<svg width="17" height="12" viewBox="0 0 17 12" fill="none" xmlns="http://www.w3.org/2000/svg">
<g id="Layer_1" clip-path="url(#clip0_399_287)">
<path id="Vector" d="M8.37 3.48998L10.8 5.91998V5.78998C10.8 5.17906 10.558 4.59301 10.127 4.16009C9.6959 3.72717 9.11091 3.48263 8.5 3.47998L8.37 3.48998Z" fill="white"/>
<path id="Vector_2" d="M17 5.84C16.4358 7.26475 15.5249 8.52618 14.35 9.51L12.18 7.3C12.3957 6.80844 12.5048 6.27677 12.5 5.74001C12.5 4.67914 12.0786 3.66172 11.3285 2.91158C10.5783 2.16143 9.56091 1.74001 8.50004 1.74001C7.96469 1.73948 7.43452 1.84483 6.94004 2.05L5.42004 0.540005C6.40734 0.181664 7.44973 -0.00109399 8.50004 4.92636e-06C10.3401 0.00473285 12.1358 0.56471 13.6524 1.60668C15.1689 2.64865 16.3357 4.1241 17 5.84Z" fill="white"/>
<path id="Vector_3" d="M12.18 7.29998C11.9235 7.90251 11.5231 8.43287 11.0138 8.84448C10.5045 9.25609 9.90189 9.53636 9.25895 9.66069C8.61602 9.78502 7.9524 9.7496 7.32636 9.55754C6.70031 9.36548 6.13099 9.02266 5.66839 8.55917C5.20579 8.09569 4.86406 7.52572 4.67319 6.89931C4.48233 6.2729 4.44817 5.60921 4.57373 4.96652C4.69928 4.32383 4.9807 3.72179 5.39328 3.21326C5.80586 2.70474 6.33698 2.30529 6.94 2.04998L5.42 0.539978C4.96832 0.720801 4.52757 0.927819 4.1 1.15998C3.68023 1.39355 3.27605 1.65409 2.89 1.93998C2.24541 2.43068 1.67313 3.0097 1.19 3.65998C0.69317 4.32731 0.292586 5.06115 0 5.83998C0.16 6.13998 3.12 11.52 8.5 11.64C10.1284 11.6635 11.7313 11.2342 13.13 10.4L14.35 9.50998L12.18 7.29998Z" fill="white"/>
<path id="Vector_4" d="M8.50005 8.10997C9.78135 8.10997 10.8201 7.07127 10.8201 5.78997C10.8201 4.50867 9.78135 3.46997 8.50005 3.46997C7.21875 3.46997 6.18005 4.50867 6.18005 5.78997C6.18005 7.07127 7.21875 8.10997 8.50005 8.10997Z" fill="white"/>
</g>
<defs>
<clipPath id="clip0_399_287">
<rect width="17" height="11.59" fill="white"/>
</clipPath>
</defs>
</svg>
