<svg width="21" height="21" viewBox="0 0 21 21" fill="none" xmlns="http://www.w3.org/2000/svg">
<g id="icon/other/search" clip-path="url(#clip0_138_128)">
<path id="Vector" d="M13.602 12.4807H12.9473L12.7153 12.257C13.5275 11.3122 14.0164 10.0857 14.0164 8.75143C14.0164 5.77629 11.6048 3.36469 8.62966 3.36469C5.65452 3.36469 3.24292 5.77629 3.24292 8.75143C3.24292 11.7266 5.65452 14.1382 8.62966 14.1382C9.96391 14.1382 11.1904 13.6492 12.1352 12.8371L12.3589 13.0691V13.7238L16.5026 17.8592L17.7374 16.6244L13.602 12.4807ZM8.62966 12.4807C6.56612 12.4807 4.90038 10.815 4.90038 8.75143C4.90038 6.68789 6.56612 5.02214 8.62966 5.02214C10.6932 5.02214 12.3589 6.68789 12.3589 8.75143C12.3589 10.815 10.6932 12.4807 8.62966 12.4807Z" fill="#1B0B4E"/>
</g>
<defs>
<clipPath id="clip0_138_128">
<rect width="19.8895" height="19.8895" fill="white" transform="translate(0.756836 0.878479)"/>
</clipPath>
</defs>
</svg>
