<svg width="14" height="15" viewBox="0 0 14 15" fill="none" xmlns="http://www.w3.org/2000/svg">
<g id="Isolation_Mode" clip-path="url(#clip0_675_4)">
<path id="Vector" d="M9.48893 10.8996C7.92842 11.8322 6.25105 12.0947 4.47414 11.6202C2.99329 11.2246 1.83168 10.3827 0.988704 9.14355C-0.683217 6.68623 -0.188497 3.34835 2.12325 1.44359C4.49401 -0.509049 7.98296 -0.479759 10.2554 1.52338C11.5364 2.65253 12.2243 4.05993 12.281 5.73488C12.3377 7.40983 11.7288 8.8484 10.5454 10.0635C10.9108 10.4715 11.273 10.8759 11.6361 11.2807C12.2464 11.9629 12.8567 12.6451 13.467 13.3273C13.7202 13.6111 13.9112 13.9281 13.9827 14.3011C13.9999 14.3933 14.0049 14.4873 13.9975 14.5807C13.973 14.8978 13.7455 15.0559 13.4249 14.9821C13.161 14.9213 12.9391 14.7827 12.7588 14.595C12.4567 14.2809 12.1676 13.9551 11.8768 13.631C11.1994 12.8763 10.5238 12.1202 9.84985 11.3628C9.7211 11.2186 9.61203 11.0586 9.48893 10.8996ZM6.14236 10.8189C6.96632 10.8188 7.77885 10.6331 8.51508 10.2765C10.7497 9.2025 11.8431 6.73617 11.0931 4.46173C10.455 2.52786 8.5702 1.13717 6.45751 1.03879C5.06761 0.974016 3.83003 1.3544 2.76269 2.21694C1.1416 3.52728 0.54404 5.64269 1.24833 7.53506C1.98107 9.50347 3.93794 10.8157 6.14256 10.8189H6.14236Z" fill="#393939"/>
</g>
<defs>
<clipPath id="clip0_675_4">
<rect width="14" height="15" fill="white"/>
</clipPath>
</defs>
</svg>
